_________________________  Visit us at _________________________
  
http://p2pdl.com  ____________________________  http://p2pdl.com


Kalifornia 1993 BRRip 720p x264 AAC - PRiSTiNE

Genre: Crime | Thriller
Plot: A journalist duo go on a tour of serial killer 
murder sites with two companions, unaware that one 
of them is a serial killer himself.
Director: Dominic Sena
Stars: Brad Pitt, Kathy Larson, David Milford
Rated: Rated R for strong violence, and for sexuality and language

Info: 
http://www.imdb.com/title/tt0107302/

General
Complete name                  : Kalifornia 1993 BRRip 720p x264 AAC - PRiSTiNE.mp4
Format                         : MPEG-4
Format profile                 : Base Media
File size                      : 678 MiB
Duration                       : 1h 58mn
Overall bit rate mode          : Variable
Overall bit rate               : 801 Kbps

Video
Format                         : AVC
Format/Info                    : Advanced Video Codec
Format profile                 : High 10@L4.1
Bit rate                       : 719 Kbps
Width                          : 1 280 pixels
Height                         : 544 pixels
Display aspect ratio           : 2.35:1
Frame rate mode                : Constant
Frame rate                     : 23.976 fps
Bit depth                      : 10 bits
Scan type                      : Progressive
Bits/(Pixel*Frame)             : 0.043
Stream size                    : 607 MiB (90%)
Writing library                : x264 core 130 r2273 b3065e6

Audio
Format                         : AAC
Bit rate mode                  : Variable
Bit rate                       : 79.9 Kbps
Channel(s)                     : 2 channels
Channel positions              : Front: L R
Sampling rate                  : 48.0 KHz / 24.0 KHz
Stream size                    : 67.6 MiB (10%)
Language                       : English

Subtitle                       : Yes (English)
Source                         : 720p.BluRay.x264-THUGLiNE (Thanks)

Screens:
 
http://www.ultraimg.com/images/5ESvq.jpg 
http://www.ultraimg.com/images/iHwBN.jpg 
http://www.ultraimg.com/images/eN6f.jpg 
http://www.ultraimg.com/images/gCDJI.jpg

----------------------------------------------------------------------------------------------------


Encoded using revolutionary 10bit encoding, which enables us to provide you more crispier 
and sharper images at small sizes, just make sure you follow our instructions without a fault.
Recommend to you to use latest version of VLC player. Install K-Lite Codec Pack or shark007 codecs
in case of any kind of problem in playback (For non-VLC Media Player users). Alternatively, install
Core AVC codecs, the fastest decoder that there is coupled with Community Center Codec Pack and play
on Windows Media Player Classic. Check sample to be sure.
Enjoy!

Encoder Notes:Looking For Early Access To Anything You Can Provide DVDScr, R5, DVDR, BluRay, Direct
Audio, Music Releases and Seedboxes. We require dedicated servers, so as to do more 
and fast releases of movies.
If You Got anything to offer please contact us at "prg@hush.com".

Face book Fan Page:   
http://www.fb.me/p2pdl